<svg version="1.1" id="Layer_1" xmlns:x="ns_extend;" xmlns:i="ns_ai;" xmlns:graph="ns_graphs;" xmlns="http://www.w3.org/2000/svg" xmlns:xlink="http://www.w3.org/1999/xlink" x="0px" y="0px" viewBox="0 0 239.1 50" style="enable-background:new 0 0 239.1 50;" xml:space="preserve">
 <style type="text/css">
  .st0{fill:#E21221;}
	.st1{fill-rule:evenodd;clip-rule:evenodd;fill:#E21221;}
 </style>
 <metadata>
  <sfw xmlns="ns_sfw;">
   <slices>
   </slices>
   <sliceSourceBounds bottomLeftOrigin="true" height="50" width="239.1" x="-119.5" y="0">
   </sliceSourceBounds>
  </sfw>
 </metadata>
 <g>
  <path class="st0" d="M219.3,44.5l12.2-33.2c0.6-3.1,0-4.7-2-4.8h-18.8v8.1h11.9l-10.7,29.9H219.3z">
  </path>
  <path class="st0" d="M168.4,44.3h-25.6V32.4c0-5.1,4.1-9.3,9.2-9.3h7.2c1,0,1.8-0.8,1.8-1.9v-5.2c0-1-0.8-1.9-1.8-1.9h-16.4V6.7
		h16.4c5.1,0,9.2,4.2,9.2,9.3v5.2c0,5.1-4.1,9.3-9.2,9.3h-7.2c-1,0-1.8,0.8-1.8,1.9v4.4h18.2L168.4,44.3L168.4,44.3L168.4,44.3z">
  </path>
  <path class="st0" d="M190.4,6.7v14.8h-6.6c-1.3,0-2.3-1-2.3-2.3V6.7H174v14.8c0,4.2,3.3,7.5,7.5,7.5h8.9v15.3h7.5V6.7H190.4z">
  </path>
  <path class="st0" d="M53.9,47.8c-7.1,0-10.6-3.7-10.6-11.1V25.6c0-7.4,3.5-11.1,10.6-11.1h8V2.3h7.7v45.5L53.9,47.8z M61.9,22.4
		h-7.7c-2.1,0-3.1,1.1-3.1,3.4v10.7c0,2.3,1,3.4,3.1,3.4h7.7V22.4z M84.6,47.8c-7.1,0-10.6-3.7-10.6-11.1V25.6
		c0-7.4,3.5-11.1,10.6-11.1h8V2.3h7.7v45.5L84.6,47.8z M92.6,22.4h-7.7c-2.1,0-3.1,1.1-3.1,3.4v10.7c0,2.3,1,3.4,3.1,3.4h7.7V22.4z
		 M112.9,47.8c-5.6,0-8.4-3-8.4-9v-3.2c0-5.2,2.8-7.8,8.5-7.8h10.6v-1.9c0-2.3-1-3.4-3.1-3.4h-14v-7.9h14c7,0,10.5,3.7,10.5,11.1
		v22.2H112.9L112.9,47.8z M123.5,33.7H114c-1.6,0-2.3,0.8-2.3,2.5v1.9c0,1.5,0.8,2.3,2.3,2.3h9.5V33.7L123.5,33.7z">
  </path>
  <path class="st1" d="M233.6,47.8h-28.2V2.2h27.6c1.1,0,2,0.3,2.6,0.9c0.6,0.6,1.2,1.3,1.2,2.3v39.1
		C236.8,46.2,235.4,47.8,233.6,47.8z M137.5,44.1V6.1c0-2.3,1.3-3.8,3.7-3.8h62.3v45.6h-62.7C138.9,47.8,137.5,46.2,137.5,44.1z
		 M135.4,5.2v39.8c0,0.7,0.3,1.6,0.5,2c0.3,0.6,0.4,0.7,0.8,1.1c0.2,0.2,0.1,0.2,0.3,0.4c0.9,0.8,2.4,1.5,3.7,1.5h92.8
		c3,0,5.5-2.6,5.5-5.5v-39c0-2.3-1.5-4.3-3.7-5.1c-0.7-0.3-1.7-0.4-2.6-0.4h-91.1c-2,0-3.3,0.5-4.3,1.4
		C136.4,2.1,135.4,3.6,135.4,5.2z">
  </path>
  <path class="st1" d="M0,45.5c0,0.4,0.1,0.8,0.4,1.2l0.1,0.2c0.1,0.2,0.3,0.3,0.4,0.4c0.1,0,0.1,0.1,0.2,0.1l0.2,0.1
		c0.2,0.1,0.4,0.2,0.6,0.2c0.6,0.1,1.2,0.1,1.7-0.2L5,46.8c0,0,0.1,0,0.1-0.1c0.5-0.3,1.1-0.6,1.6-0.8l3-1.4l1.6-0.7
		c0.2-0.1,0.4-0.1,0.5-0.2l0.5-0.2c0.1,0,0.2-0.1,0.3-0.1c0.4-0.1,0.7-0.2,1.1-0.4c0.6-0.2,1.4-0.4,2-0.6c1-0.2,2.1-0.5,3.2-0.5
		c0.4,0,0.8-0.1,1.2-0.1c0.1,0,0.1,0,0.2,0c0.1,0,0.2,0,0.4,0l1.7,0.1c0.4,0.1,0.9,0.1,1.3,0.2c0.4,0.1,0.8,0.2,1.2,0.3l0.6,0.1
		c0.6,0.1,1.1,0.3,1.7,0.5l0.6,0.2c0.2,0.1,0.4,0.1,0.5,0.2c0.6,0.2,1.3,0.5,1.9,0.7l0.8,0.3c0.1,0,0.2,0.1,0.3,0.1l1.8,0.8
		c0.1,0,0.2,0.1,0.2,0.1c0.1,0,0.2,0.1,0.3,0.1l2.3,1.2c0.1,0,0.1,0,0.1,0.1c0.1,0,0.2,0.1,0.2,0.1c0,0,0.1,0,0.1,0.1
		c0.3,0.2,0.6,0.4,1,0.5c0.6,0.2,1.4,0.2,2-0.1c0.2-0.1,0.3-0.2,0.5-0.3c0.4-0.3,0.7-0.6,0.8-1c0.2-0.5,0.2-1.1,0-1.6
		c-0.1-0.2-0.2-0.5-0.3-0.7c-0.1-0.2-0.2-0.5-0.3-0.7c-0.1-0.2-0.2-0.5-0.3-0.7c-0.1-0.1-0.1-0.2-0.1-0.3l-0.3-0.7
		c-0.1-0.1-0.1-0.2-0.1-0.3s-0.1-0.2-0.1-0.3L38,38.7c-0.1-0.1-0.1-0.2-0.1-0.3l-0.9-2.1c-0.1-0.2-0.2-0.5-0.3-0.7l-1.5-3.5
		c-0.3-0.7-0.6-1.4-0.9-2.1c-0.1-0.2-0.2-0.5-0.3-0.7c-0.3-0.8-0.7-1.6-1-2.4c-0.3-0.8-0.7-1.6-1.1-2.4l-0.6-1.4
		c-0.1-0.1-0.1-0.2-0.1-0.3l-1-2.4c-0.1-0.2-0.2-0.5-0.3-0.7l-1.3-3.1c-0.3-0.7-0.6-1.4-0.9-2.1L26.4,12c-0.2-0.6-0.5-1.1-0.7-1.7
		l-1.4-3.1c-0.4-0.9-0.8-1.8-1.2-2.8c-0.2-0.4-0.2-0.6-0.5-1c-0.2-0.3-0.5-0.6-0.8-0.8c-0.3-0.2-0.7-0.3-1-0.3
		c-0.7-0.1-1.5,0.1-2.1,0.5c-0.1,0-0.1,0.1-0.1,0.1c-0.1,0.1-0.2,0.2-0.2,0.2c0,0-0.1,0.1-0.1,0.1c-0.2,0.3-0.3,0.5-0.4,0.8
		c-0.3,0.6-0.5,1.2-0.7,1.7c-0.1,0.1-0.1,0.2-0.1,0.3c-0.1,0.4-0.3,0.7-0.5,1c-0.2,0.5-0.4,0.9-0.6,1.4c0,0.1,0,0.1-0.1,0.2
		c0,0.1-0.1,0.1-0.1,0.2c0,0.1-0.1,0.1-0.1,0.2L15,10.4c-0.1,0.1-0.1,0.2-0.2,0.4c-0.4,0.9-0.8,1.8-1.2,2.8l-0.6,1.4
		C13,15,13,15.1,12.9,15.2c-0.1,0.1-0.1,0.2-0.1,0.3l-1.7,3.8c-0.1,0.1-0.1,0.2-0.1,0.3l-0.9,2.1C10,22,9.9,22.2,9.8,22.5
		c-0.2,0.4-0.4,1-0.6,1.4l-0.6,1.4c-0.1,0.2-0.2,0.5-0.3,0.7C8,26.6,7.7,27.3,7.4,28l-1,2.4c-0.1,0.1-0.1,0.2-0.1,0.3
		c-0.1,0.3-0.3,0.7-0.4,1l-0.3,0.7c-0.2,0.6-0.5,1.2-0.8,1.7c-0.3,0.8-0.7,1.6-1,2.4c-0.4,0.9-0.8,1.8-1.2,2.8
		c0,0.1-0.1,0.2-0.2,0.4c0,0.1-0.1,0.2-0.1,0.3c-0.1,0.2-0.2,0.5-0.3,0.7l-0.4,1c0,0.1-0.1,0.2-0.1,0.3c-0.1,0.1-0.1,0.2-0.2,0.4
		l-0.7,1.7C0.2,44.7,0,45,0,45.5z M12.7,34.2c0,0.2,0,0.3,0.1,0.4l0,0.1c0,0.1,0.1,0.1,0.2,0.2c0,0,0,0,0.1,0l0.1,0
		c0.1,0,0.2,0.1,0.2,0.1c0.2,0.1,0.4,0,0.7-0.1l0.5-0.3c0,0,0,0,0,0c0.2-0.1,0.4-0.2,0.6-0.3l1.1-0.5l0.6-0.2c0.1,0,0.1-0.1,0.2-0.1
		l0.2-0.1c0,0,0.1,0,0.1,0c0.1-0.1,0.3-0.1,0.4-0.1c0.2-0.1,0.5-0.2,0.8-0.2c0.4-0.1,0.8-0.2,1.2-0.2c0.2,0,0.3,0,0.5,0
		c0,0,0,0,0.1,0c0.1,0,0.1,0,0.1,0l0.6,0c0.2,0,0.3,0,0.5,0.1c0.2,0,0.3,0.1,0.5,0.1l0.2,0.1c0.2,0.1,0.4,0.1,0.6,0.2l0.2,0.1
		c0.1,0,0.1,0,0.2,0.1c0.2,0.1,0.5,0.2,0.7,0.3l0.3,0.1c0,0,0.1,0,0.1,0l0.7,0.3c0,0,0.1,0,0.1,0c0,0,0.1,0,0.1,0l0.9,0.4
		c0,0,0,0,0,0c0,0,0.1,0,0.1,0c0,0,0,0,0,0c0.1,0.1,0.2,0.1,0.4,0.2c0.2,0.1,0.5,0.1,0.7,0c0.1,0,0.1-0.1,0.2-0.1
		c0.1-0.1,0.3-0.2,0.3-0.4c0.1-0.2,0.1-0.4,0-0.6c0-0.1-0.1-0.2-0.1-0.3c0-0.1-0.1-0.2-0.1-0.3s-0.1-0.2-0.1-0.3c0,0,0-0.1-0.1-0.1
		l-0.1-0.3c0,0,0-0.1-0.1-0.1c0,0,0-0.1-0.1-0.1l-0.3-0.8c0,0,0-0.1-0.1-0.1l-0.3-0.8c0-0.1-0.1-0.2-0.1-0.3l-0.6-1.3
		c-0.1-0.3-0.2-0.5-0.3-0.8c0-0.1-0.1-0.2-0.1-0.3c-0.1-0.3-0.3-0.6-0.4-0.9c-0.1-0.3-0.3-0.6-0.4-0.9l-0.2-0.5c0,0,0-0.1-0.1-0.1
		L24,24.8c0-0.1-0.1-0.2-0.1-0.3l-0.5-1.2c-0.1-0.3-0.2-0.5-0.3-0.8l-0.4-0.9c-0.1-0.2-0.2-0.4-0.3-0.6l-0.5-1.2
		c-0.1-0.3-0.3-0.7-0.4-1c-0.1-0.1-0.1-0.2-0.2-0.4c-0.1-0.1-0.2-0.2-0.3-0.3c-0.1-0.1-0.2-0.1-0.4-0.1c-0.3,0-0.6,0-0.8,0.2
		c0,0,0,0-0.1,0c0,0-0.1,0.1-0.1,0.1c0,0,0,0,0,0.1c-0.1,0.1-0.1,0.2-0.2,0.3c-0.1,0.2-0.2,0.4-0.3,0.6c0,0,0,0.1-0.1,0.1
		c-0.1,0.1-0.1,0.3-0.2,0.4c-0.1,0.2-0.1,0.3-0.2,0.5c0,0,0,0,0,0.1c0,0,0,0,0,0.1c0,0,0,0,0,0.1l-0.2,0.5c0,0,0,0.1-0.1,0.1
		c-0.2,0.3-0.3,0.7-0.4,1l-0.2,0.5c0,0,0,0.1-0.1,0.1c0,0,0,0.1-0.1,0.1l-0.6,1.4c0,0,0,0.1-0.1,0.1l-0.3,0.8c0,0.1-0.1,0.2-0.1,0.3
		c-0.1,0.1-0.2,0.4-0.2,0.5L16,26.6c0,0.1-0.1,0.2-0.1,0.3c-0.1,0.3-0.2,0.5-0.3,0.8l-0.4,0.9c0,0,0,0.1-0.1,0.1
		C15,28.8,15,29,14.9,29.1l-0.1,0.3c-0.1,0.2-0.2,0.4-0.3,0.7c-0.1,0.3-0.3,0.6-0.4,0.9c-0.1,0.3-0.3,0.7-0.4,1c0,0,0,0.1-0.1,0.1
		c0,0,0,0.1-0.1,0.1c0,0.1-0.1,0.2-0.1,0.3l-0.2,0.4c0,0,0,0.1-0.1,0.1c0,0,0,0.1-0.1,0.1l-0.3,0.6C12.8,33.9,12.7,34,12.7,34.2z">
  </path>
 </g>
</svg>