<svg version="1.1" id="Layer_1" xmlns:x="ns_extend;" xmlns:i="ns_ai;" xmlns:graph="ns_graphs;" xmlns="http://www.w3.org/2000/svg" xmlns:xlink="http://www.w3.org/1999/xlink" x="0px" y="0px" viewBox="0 0 399.4 147.5" style="enable-background:new 0 0 399.4 147.5;" xml:space="preserve">
 <style type="text/css">
  .st0{fill:#FFFFFF;}
	.st1{fill-rule:evenodd;clip-rule:evenodd;fill:#FFFFFF;}
 </style>
 <metadata>
  <sfw xmlns="ns_sfw;">
   <slices>
   </slices>
   <sliceSourceBounds bottomLeftOrigin="true" height="147.5" width="399.4" x="-185.7" y="-126.4">
   </sliceSourceBounds>
  </sfw>
 </metadata>
 <g>
  <g>
   <g>
    <path class="st0" d="M73,87.7C73,87.7,73,87.7,73,87.7H14.6c-3.9,0-7.5-1.5-10.3-4.3C1.5,80.6,0,77,0,73.1V14.5
				C0,10.6,1.6,7,4.3,4.2C7.1,1.5,10.7,0,14.6,0c0,0,0,0,0,0v0H73c3.9,0,7.5,1.5,10.3,4.2c2.8,2.7,4.3,6.3,4.4,10.2v58.7
				c0,3.9-1.6,7.6-4.4,10.3C80.6,86.2,76.9,87.7,73,87.7z M14.6,4.2c-2.8,0-5.4,1.1-7.3,3c-2,2-3.1,4.5-3.1,7.3v58.6
				c0,2.8,1.1,5.4,3.1,7.4c2,2,4.6,3.1,7.4,3.1H73c0,0,0,0,0,0c2.8,0,5.4-1.1,7.4-3c2-2,3.1-4.6,3.1-7.4V14.5
				c-0.1-2.7-1.2-5.3-3.2-7.3c-2-1.9-4.6-3-7.4-3H14.6z">
    </path>
   </g>
   <path class="st1" d="M45.8,12.6h-6.6v18c2.4,0,4.7,0.7,6.6,2V12.6z">
   </path>
   <path class="st1" d="M40.9,63.1c-1.3,2.4-4,3.9-6.8,3.7c-1.9,0.1-3.8-0.6-5.4-1.7c-1.6-1.3-2.7-3-3.4-4.9c-0.7-2-1.1-4.2-1.2-6.3
			c0-2.2,0.4-4.4,1.2-6.4c0.6-1.9,1.8-3.6,3.4-4.8c1.5-1.3,3.4-1.9,5.4-1.9c1.9,0,3.7,0.6,5.1,1.8c1.4,1.3,2.4,3,3,4.8
			c0.6,2.1,0.9,4.3,0.9,6.5C43.3,57.1,42.5,60.3,40.9,63.1z M52.6,43.4c-1.2-3.1-3.2-5.9-5.8-8c-2.6-2-5.9-3.1-9.2-3
			c-2.5,0-5,0.5-7.2,1.5c-2.2,1-4,2.6-5.4,4.6h-0.1v-26h-11V75c0,0,10,1.2,10.4-5.3v-1.1l0.1,0.5c0.3,0.7,0.7,1.3,1.2,1.9
			c1.2,1.2,2.5,2.2,4.1,2.8c2.5,1,5.2,1.4,7.9,1.3c3.3,0.1,6.6-0.9,9.2-2.9c2.6-2.1,4.6-4.8,5.8-7.9c1.3-3.3,2-6.9,2-10.4
			C54.6,50.3,54,46.7,52.6,43.4C52.6,43.4,52.6,43.4,52.6,43.4z">
   </path>
   <path class="st1" d="M71.8,43.4c-3.5-9-13.5-13.6-22.3-9.5c-0.4,0.2-0.8,0.4-1.1,0.6c1.3,1.2,2.5,2.6,3.5,4.1
			c1.1-0.4,2.3-0.6,3.5-0.6c8.4,0,11,8.9,11,15.8s-2.7,15.7-11,15.7c-1.3,0-2.6-0.2-3.8-0.6c-1.2,1.6-2.5,3.1-4.1,4.3
			c0.4,0.2,0.8,0.4,1.3,0.6c2.5,1,5.2,1.4,7.9,1.3c3.3,0.1,6.6-0.9,9.2-2.9c2.6-2.1,4.6-4.8,5.8-8c1.3-3.3,2-6.9,2-10.4
			C73.8,50.3,73.1,46.7,71.8,43.4z M121.6,62.9c-1.4,2.4-4,3.9-6.7,3.8c-1.9,0.1-3.8-0.6-5.3-1.8c-1.6-1.3-2.8-3-3.4-5
			c-0.8-2-1.2-4.2-1.2-6.4c0-2.2,0.4-4.3,1.2-6.3c0.6-1.9,1.8-3.6,3.4-4.8c1.5-1.2,3.4-1.9,5.3-1.8c1.8,0,3.6,0.6,4.9,1.8
			c1.4,1.3,2.5,2.8,3.2,4.5c0.6,2.2,1,4.5,1,6.7C124.1,56.9,123.3,60.1,121.6,62.9z M133.3,43.2c-1.2-3.1-3.2-5.8-5.7-7.9
			c-2.7-2-6-3.1-9.3-3c-2.5,0-4.9,0.5-7.1,1.6c-2.2,0.8-4.1,2.4-5.4,4.4h-0.2V12.6H94.7v62.1c0,0,9.9,1.2,10.3-5.4v-0.8l0.2,0.4
			c0.3,0.6,0.7,1.2,1.2,1.8c1.2,1.2,2.6,2.2,4.2,2.8c2.4,1,5.1,1.5,7.7,1.4c3.3,0.1,6.6-1,9.3-3c2.6-2.1,4.6-4.8,5.7-7.9
			c1.3-3.3,2-6.8,2-10.3C135.4,50.1,134.7,46.5,133.3,43.2L133.3,43.2L133.3,43.2z M149.2,33.5v41.5h-10.9V33.5L149.2,33.5
			L149.2,33.5z M138.3,21.7v-9.1h10.9v9.1L138.3,21.7L138.3,21.7z M181,57.2c-0.3,1.3-0.8,2.5-1.6,3.6c-0.8,1-1.8,1.8-3,2.4
			c-1.3,0.8-2.7,1.1-4.2,1c-1.5,0-2.9-0.3-4.2-1c-1.1-0.8-2.1-1.8-2.8-3c-0.7-1.2-1.2-2.4-1.4-3.8c-0.3-1.4-0.5-2.9-0.4-4.4
			c0-1.5,0.2-2.9,0.4-4.4c0.4-1.3,0.9-2.5,1.6-3.6c0.7-1.1,1.7-1.9,2.8-2.6c1.2-0.6,2.6-1,4-1c1.6,0,3.1,0.3,4.5,1
			c1.2,0.7,2.1,1.6,2.8,2.8c0.7,1.2,1.3,2.6,1.6,4c0.2,1.6,0.4,3.2,0.4,4.8C181.6,54.5,181.4,56,181,57.2
			C181,57.3,181,57.2,181,57.2z M181.6,38.8h-0.2c-1.1-2.2-2.8-3.9-4.9-5c-2.1-1.1-4.4-1.6-6.7-1.6c-2.5,0-5,0.5-7.3,1.6
			c-2.1,1.1-3.9,2.6-5.3,4.6c-1.5,1.9-2.7,4-3.4,6.3c-0.7,2.4-1.1,5-1,7.5c0,2.6,0.2,5.2,0.8,7.7c0.6,2.4,1.7,4.6,3.2,6.5
			c1.4,1.9,3.2,3.4,5.3,4.4c2.4,1.1,4.9,1.6,7.5,1.6c2.4,0,4.7-0.4,6.9-1.4c2.1-1,3.8-2.7,4.9-4.8h0.2v5.2c0.3,2.6-0.4,5.1-2,7.2
			c-1.4,2-3.6,2.8-6.7,2.8c-1.8,0-3.6-0.4-5.1-1.2c-1.6-0.9-2.7-2.4-3-4.2h-10.9c0.1,2.1,0.8,4.1,2,5.8c1,1.7,2.5,3,4.2,4
			c1.6,1.2,3.6,2.1,5.6,2.4c1.9,0.6,3.9,0.8,5.9,0.8c3.7,0.2,7.5-0.5,10.9-2c2.4-1,4.5-2.6,6.1-4.6c1.4-1.7,2.4-3.6,2.8-5.7
			c0.5-1.8,0.8-3.7,0.8-5.6V33.5h-1.4C182,33.7,181.6,38.8,181.6,38.8L181.6,38.8L181.6,38.8z M399.4,39.4v-0.8
			c-0.6-4.8-6.5-4.8-6.5-4.8V12.4h-6.7v21.4h-5.6v5.6h5.6v27c0,4.8,1.4,8.7,8.1,8.7c0.8,0,2.8-0.4,5.2-0.6v-5.4H397
			c-1.4,0-4.2,0-4.2-3.2V39.4L399.4,39.4L399.4,39.4z M342.8,36.2c-3.8-4-8.3-0.4-9.1,0.4l-15.3,14.9V12.4h-6.5v62.7h6.5V59.7
			l5.7-5.2l12.6,20.6h8.7l-16.4-25.6L342.8,36.2z M296.3,50.9l-6.7-1.8c-5.3-1.4-7.5-2.2-7.5-5.4c0-5.2,6.1-5.7,8.1-5.7
			c4.6,0,6.9,1,8.1,2.6c0,0,3.8,4.4,8.1,3c-0.4-3.4-3-11.5-15.4-11.5c-8.1,0-15.4,4-15.4,12.9c0,5.6,3.8,8.5,9.5,9.9l7.9,2
			c5.7,1.4,7.9,2.6,7.9,5.8c0,4.6-4.3,6.5-9.3,6.5c-9.5,0-10.5-5.2-10.7-8.3h-6.7c0.4,5,1.6,14.3,17.6,14.3c9.1,0,16-5.2,16-13.5
			C307.8,56.1,304.8,52.9,296.3,50.9z">
   </path>
   <path class="st1" d="M361.8,38.2c8.3,0,10.9,5.7,11.2,12.1h-17.3c-2,0.1-3.9,1-5.1,2.6v-2.6C350.6,44,355.5,38.2,361.8,38.2
			L361.8,38.2L361.8,38.2z M362.4,69.1c-7.9,0-11.9-5-11.9-13.5h29.7c0-14.3-5.7-23.6-17.4-23.6c-13.5,0-19.6,9.9-19.6,22.6
			c0,11.7,6.7,20.4,18.2,20.4c6.5,0,9.1-1.6,11.1-3c3.8-2.6,6.4-6.6,7.1-11.1h-6.7C372.5,64.3,368.7,69.2,362.4,69.1L362.4,69.1
			L362.4,69.1z M262.2,59.9c0,5.4-6.3,9.5-12.6,9.5c-5.1,0-7.3-2.6-7.3-7.1c0-5.2,5.3-6.2,8.7-6.6c8.5-1.2,10.1-1.8,11.2-2.6
			L262.2,59.9L262.2,59.9L262.2,59.9z M271.3,69.2c-1.1,0.2-2.2-0.6-2.4-1.8c0-0.2,0-0.4,0-0.6V43.4c0-10.5-11.7-11.2-15.1-11.2
			c-9.9,0-16.2,3.8-16.6,13.1c2.8,0.5,5.6-0.8,7.1-3.2c0.2-0.4,0.5-0.8,0.8-1.2c1.2-1.9,3.4-3.3,7.5-3.3c6.5,0,9.7,2.4,9.7,6.7
			c0,4-2,4.6-3.6,4.8l-11.2,1.4c-11.5,1.4-12.5,9.3-12.5,12.6c0,7.2,5.4,11.9,12.9,11.9c5.7,0.1,11.1-2.4,14.7-6.8
			c0.2,3.2,1.2,6.4,7.1,6.4c1.3-0.1,2.5-0.4,3.8-0.8v-5C272.7,69,271.9,69.2,271.3,69.2L271.3,69.2z M215.1,69.2
			c-4.4,0-11.1-3-11.1-13.7c0-6.7,1.2-17.3,10.9-17.3c10.7,0,11.3,9.9,11.3,15.3C226.2,62.4,222.6,69.2,215.1,69.2z M216.3,32.1
			c-4.8-0.1-9.2,2.3-11.7,6.3h-0.2v-26h-6.9v61.5h2.6c2.2,0,3.9-1.8,4-4v-1.2h0.2c2.1,4.1,6.5,6.6,11.1,6.4
			c13.9,0,17.8-13.1,17.8-22.8C233.1,40.8,227,32.1,216.3,32.1L216.3,32.1z M78.8,114.6h24.5v7.5h-7v18H86v-18h-7.3V114.6z
			 M115.7,124.9l-5.2,15.2h-9.8l9.6-25.5h10.7l9.9,25.5H121C121,140.1,115.7,124.9,115.7,124.9z M128.6,114.6h24.5v7.5h-7v18h-10.2
			v-18h-7.3L128.6,114.6L128.6,114.6z M165.5,124.9l-5.2,15.2h-9.8l9.6-25.5h10.7l9.9,25.5h-9.9L165.5,124.9z M207.7,128.8h-9.5v7.4
			h10.7v3.8h-15.3v-25.4h14.7v3.8h-10.1v6.5h9.5C207.7,125,207.7,128.8,207.7,128.8z M212.3,127.2c0-2.1,0-3.9-0.1-5.5h4l0.2,2.8
			h0.1c1.2-2,3.5-3.2,5.8-3.2c3.2,0,6.5,2.1,6.5,7.9v10.9h-4.6v-10.3c0-2.6-1-4.6-3.5-4.6c-1.7,0-3.1,1.1-3.6,2.7
			c-0.2,0.5-0.2,0.9-0.2,1.4v10.8h-4.6V127.2 M238.7,117v4.7h4.4v3.5h-4.4v8.1c0,2.2,0.6,3.4,2.4,3.4c0.6,0,1.2,0,1.8-0.2l0.1,3.5
			c-1.1,0.3-2.2,0.5-3.4,0.5c-1.5,0.1-2.9-0.5-4-1.5c-1.1-1.5-1.6-3.3-1.4-5.2v-8.6h-2.6v-3.5h2.6v-3.4L238.7,117 M257.5,128.9
			c0-1.7-0.7-4.5-3.8-4.5c-2.8,0-4,2.6-4.2,4.5L257.5,128.9L257.5,128.9L257.5,128.9z M249.5,132.1c0.1,3.3,2.7,4.8,5.6,4.8
			c1.7,0,3.4-0.3,5-0.8l0.7,3.2c-2,0.8-4.2,1.2-6.4,1.2c-5.9,0-9.4-3.7-9.4-9.3c0-5.1,3.1-9.8,8.9-9.8c5.9,0,7.9,4.9,7.9,8.9
			c0,0.7,0,1.3-0.2,2L249.5,132.1z M265.2,127.6c0-2.4,0-4.2-0.2-5.9h4l0.2,3.5h0.1c0.7-2.2,2.7-3.8,5-3.9c0.4,0,0.7,0,1.1,0.1v4.4
			c-0.5-0.1-0.9-0.1-1.4-0.1c-2.1-0.1-3.9,1.5-4.1,3.5c-0.1,0.5-0.1,0.9-0.1,1.4v9.5h-4.6L265.2,127.6 M282.8,132.4
			c0,0.4,0,0.8,0.1,1.3c0.5,1.9,2.1,3.2,4.1,3.2c2.9,0,4.7-2.4,4.7-6c0-3.2-1.6-5.9-4.5-5.9c-2,0-3.7,1.5-4.1,3.4
			c-0.1,0.4-0.2,0.8-0.2,1.2V132.4z M278.2,127.8c0-2.4-0.1-4.3-0.2-6.1h4.1l0.2,2.8h0.1c1.4-2.1,3.8-3.3,6.3-3.2
			c4.2,0,7.7,3.6,7.7,9.3c0,6.7-4.1,9.8-8.3,9.8c-2,0.1-4-0.8-5.1-2.5v9.5h-4.6C278.3,147.5,278.2,127.8,278.2,127.8z M299.8,127.6
			c0-2.4,0-4.2-0.2-5.9h4l0.2,3.5h0.1c0.7-2.2,2.7-3.8,5-3.9c0.4,0,0.7,0,1.1,0.1v4.4c-0.5-0.1-0.9-0.1-1.4-0.1
			c-2.1-0.1-3.9,1.4-4.2,3.5c-0.1,0.5-0.1,0.9-0.1,1.4v9.5h-4.6v-12.5 M315.1,118.9c-1-0.1-2-0.8-2.3-1.7c-0.5-1.4,0.2-2.9,1.6-3.4
			c0.1-0.1,0.3-0.1,0.5-0.1c1-0.2,2.1,0.3,2.7,1.1c0.3,0.4,0.4,0.9,0.4,1.4c0,1.4-1.1,2.6-2.5,2.7
			C315.2,118.9,315.1,118.9,315.1,118.9z M312.8,121.7h4.6V140h-4.6V121.7z M321.8,135.8c1.4,0.8,3,1.3,4.7,1.4c2,0,2.9-0.9,2.9-2.1
			c0-1.2-0.8-1.9-3-2.7c-3.6-1.2-5.1-3.2-5-5.4c0-3.2,2.7-5.7,6.9-5.7c1.7,0,3.3,0.3,4.9,1.1l-0.9,3.3c-1.2-0.7-2.5-1-3.9-1.1
			c-1.6,0-2.6,0.8-2.6,1.9c0,1.1,0.9,1.7,3.2,2.6c3.3,1.2,4.9,2.8,4.9,5.6c0,3.4-2.6,5.8-7.4,5.8c-1.9,0-3.9-0.4-5.6-1.3l0.9-3.4
			 M348.6,128.9c0-1.7-0.7-4.5-3.8-4.5c-2.8,0-4,2.6-4.2,4.5L348.6,128.9L348.6,128.9L348.6,128.9z M340.6,132.1
			c0.1,3.3,2.7,4.8,5.6,4.8c1.7,0,3.4-0.3,5-0.8l0.7,3.2c-2,0.8-4.2,1.2-6.4,1.2c-5.9,0-9.4-3.7-9.4-9.3c0-5.1,3.1-9.8,8.9-9.8
			c5.9,0,7.9,4.9,7.9,8.9c0,0.7,0,1.3-0.2,2L340.6,132.1z M62.7,129.4l-2-6.3c-0.5-1.6-0.9-3.3-1.3-4.8h-0.1
			c-0.4,1.5-0.8,3.2-1.2,4.8l-2,6.3C56.2,129.4,62.7,129.4,62.7,129.4z M55.5,132.9l-2.2,7.2h-4.8l8.1-25.4h5.9l8.2,25.4h-4.9
			l-2.3-7.2C63.5,132.9,55.5,132.9,55.5,132.9z">
   </path>
  </g>
 </g>
</svg>